<svg id="_レイヤー_2" xmlns="http://www.w3.org/2000/svg" viewBox="0 0 177.69 117.45"><defs><style>.cls-1{fill:#231815}</style></defs><g id="_レイヤー_1-2"><path class="cls-1" d="M.42 11.89c.64 1.31 1.69 2.34 2.99 2.92 12.18 5.46 46.2 18.93 85.33 18.93 41.73 0 76.92-18.81 86.53-24.45a4.83 4.83 0 001.93-2.14c1.55-3.3-.76-7.15-4.29-7.15H20.88c-3.18 0-6.34.58-9.36 1.71l-9.3 4.67C.24 7.37-.57 9.85.42 11.89zm64.61 65.02h.01c.02 0 .03 0 .04-.02.02-.01.02-.03.02-.05v-2.11s-.02-.06-.05-.07c-.35-.1-.7-.2-.99-.36-.88-.46-1.59-1.07-2.12-1.82s-.92-1.61-1.16-2.56c-.24-.95-.35-1.95-.35-2.96V52.91s-.03-.07-.07-.07H58.1s-.07.03-.07.07v14.33c0 1.03.14 2.13.4 3.28.27 1.15.75 2.22 1.45 3.2s1.65 1.79 2.83 2.43c.63.34 1.41.59 2.31.76zm3.93 0h.01c.89-.16 1.66-.42 2.29-.75 1.19-.64 2.15-1.45 2.85-2.43.7-.98 1.18-2.05 1.45-3.2.27-1.16.4-2.26.4-3.28V52.92s-.03-.07-.07-.07h-2.26s-.07.03-.07.07v14.05c0 1.01-.12 2.01-.36 2.96-.24.96-.62 1.82-1.16 2.56-.53.74-1.25 1.36-2.12 1.82-.3.16-.64.26-1 .36-.03 0-.05.04-.05.07v2.11s0 .04.02.05c.01.01.03.02.04.02zm7.44 16.12H60.78s-.07.03-.07.07v23.6s.03.07.07.07H76.4s.07-.03.07-.07v-1.98s-.03-.07-.07-.07H63.18s-.07-.03-.07-.07V95.22s.03-.07.07-.07H76.4s.07-.03.07-.07V93.1s-.03-.07-.07-.07z"/><rect class="cls-1" x="66.88" y="103.84" width="7.9" height="2.12" rx=".07" ry=".07"/><path class="cls-1" d="M152.47 75.14s.02-.08-.02-.11a5.68 5.68 0 01-1.19-1.21c-.53-.75-.92-1.61-1.16-2.56-.24-.95-.35-1.95-.35-2.96V51.06s-.03-.07-.07-.07h-2.26s-.07.03-.07.07v17.52c0 1.03.14 2.13.4 3.28.27 1.15.75 2.22 1.45 3.2.5.7 1.13 1.31 1.88 1.84.04.03.09.02.11-.02l1.27-1.74zm-127.25.35s-.02-.08.02-.11c.46-.35.87-.76 1.19-1.21.53-.75.92-1.61 1.16-2.56.24-.95.35-1.95.35-2.96V51.06s.03-.07.07-.07h2.26s.07.03.07.07v17.87c0 1.03-.14 2.13-.4 3.28a8.995 8.995 0 01-1.45 3.2c-.5.7-1.13 1.31-1.88 1.84-.04.03-.09.02-.11-.02l-1.27-1.74zm67.08 1.35l-.1-2.26s.03-.08.07-.08c2.53-.15 4.58-1.69 5.01-3.79.52-2.56-.54-4.38-3.14-5.43-3.68-1.48-5.36-4.45-4.61-8.15.64-3.18 3.62-5.52 7.26-5.72.04 0 .08.03.09.08l.1 2.26s-.03.08-.07.08c-2.53.15-4.58 1.69-5.01 3.79-.52 2.56.54 4.38 3.14 5.43 3.68 1.48 5.36 4.45 4.61 8.15-.64 3.18-3.62 5.52-7.26 5.72-.04 0-.08-.03-.09-.08z"/><rect class="cls-1" x="113.97" y="52.84" width="2.4" height="23.73" rx=".07" ry=".07"/><path class="cls-1" d="M132.45 52.84h-2.26s-.07.03-.07.07v7.26c0 1.06-.35 2.93-5.88 2.93h-4.01s-.08.04-.08.08v1.96s.04.08.08.08h4.27c3.14 0 4.85-.6 5.63-1.5v12.79s.03.07.07.07h2.26s.07-.03.07-.07v-23.6s-.03-.07-.07-.07z"/><rect class="cls-1" x="113.97" y="93.03" width="2.4" height="23.73" rx=".07" ry=".07"/><path class="cls-1" d="M132.45 93.03h-2.26s-.07.03-.07.07v7.26c0 1.06-.35 2.93-5.88 2.93h-4.01s-.08.04-.08.08v1.96s.04.08.08.08h4.27c3.14 0 4.85-.6 5.63-1.5v12.79s.03.07.07.07h2.26s.07-.03.07-.07V93.1s-.03-.07-.07-.07zm20.02 22.3s.02-.08-.02-.11a5.68 5.68 0 01-1.19-1.21c-.53-.75-.92-1.61-1.16-2.56-.24-.95-.35-1.95-.35-2.96V91.25s-.03-.07-.07-.07h-2.26s-.07.03-.07.07v17.52c0 1.03.14 2.13.4 3.28.27 1.15.75 2.22 1.45 3.2.5.7 1.13 1.31 1.88 1.84.04.03.09.02.11-.02l1.27-1.74zm-60.17 1.7l-.1-2.26s.03-.08.07-.08c2.53-.15 4.58-1.69 5.01-3.79.52-2.56-.54-4.38-3.14-5.43-3.68-1.48-5.36-4.45-4.61-8.15.64-3.18 3.62-5.52 7.26-5.72.04 0 .08.03.09.08l.1 2.26s-.03.08-.07.08c-2.53.15-4.58 1.69-5.01 3.79-.52 2.56.54 4.38 3.14 5.43 3.68 1.48 5.36 4.45 4.61 8.15-.64 3.18-3.62 5.52-7.26 5.72-.04 0-.08-.03-.09-.08zM36.23 76.57H34.2s-.08-.04-.08-.08v-1.93s.04-.08.08-.08h2.03c2.92 0 5.29-2.08 5.29-4.64 0-1.04-.38-2.02-1.11-2.84a4.274 4.274 0 010-5.68c.73-.82 1.11-1.8 1.11-2.84 0-2.56-2.37-4.64-5.29-4.64H34.2s-.08-.04-.08-.08v-1.93s.04-.08.08-.08h2.03c4.07 0 7.86 3.02 7.86 6.73 0 1.53-.87 3.04-1.93 4.23a2.22 2.22 0 000 2.92c1.05 1.19 1.93 2.69 1.93 4.23 0 3.71-3.8 6.73-7.86 6.73zm6.92 15.37s-.07.03-.07.07c-.03 3.99-2.65 7.21-5.88 7.21-1.07 0-2.06-.36-2.93-.97-.03-.02-.08 0-.08.04v2.32s.02.08.06.09c.92.42 1.9.79 2.94.79 2.8 0 5.27-1.74 6.78-4.28.04-.07.14-.04.14.04v19.45c0 .04.03.07.07.07h2.25s.07-.03.07-.07V92.02s-.03-.07-.07-.07h-3.28zm-15.14-.76s-.07.03-.07.07v17.59c0 1.01-.12 2.01-.35 2.96-.24.95-.62 1.82-1.16 2.56-.33.46-.73.86-1.19 1.21-.03.03-.04.07-.02.11l1.27 1.74s.08.04.11.02c.75-.53 1.38-1.14 1.88-1.84.7-.98 1.19-2.05 1.45-3.2.27-1.15.4-2.25.4-3.28V91.25s-.03-.07-.07-.07H28z"/></g></svg>