<svg id="_レイヤー_2" xmlns="http://www.w3.org/2000/svg" viewBox="0 0 97.63 64.53"><defs><style>.cls-1{fill:#fff;stroke-width:0}</style></defs><g id="_レイヤー_1-2"><path class="cls-1" d="M.23 6.53c.35.72.93 1.28 1.64 1.6 6.69 3 25.38 10.4 46.89 10.4C71.69 18.53 91.02 8.2 96.3 5.1c.46-.27.83-.68 1.06-1.18.85-1.81-.42-3.93-2.36-3.93H11.47c-1.75 0-3.48.32-5.14.94L1.22 3.51C.13 4.05-.31 5.41.23 6.53zm35.5 35.73h.02s.01-.02.01-.03v-1.16s-.01-.03-.03-.04c-.19-.06-.38-.11-.55-.2-.48-.25-.87-.59-1.17-1-.29-.41-.51-.88-.64-1.41-.13-.52-.19-1.07-.19-1.63v-7.72s-.02-.04-.04-.04H31.9s-.04.02-.04.04v7.87c0 .56.07 1.17.22 1.8.15.63.41 1.22.8 1.76.38.54.91.99 1.56 1.34.35.19.77.33 1.27.42zm2.16 0c.49-.09.91-.23 1.26-.41.65-.35 1.18-.8 1.57-1.34.38-.54.65-1.13.8-1.76.15-.63.22-1.24.22-1.8v-7.87s-.02-.04-.04-.04h-1.24s-.04.02-.04.04v7.72c0 .56-.07 1.1-.2 1.63-.13.53-.34 1-.63 1.41-.29.41-.68.75-1.17 1-.16.09-.35.14-.55.2-.02 0-.03.02-.03.04v1.16s0 .02.01.03h.02zm4.09 8.85H33.4s-.04.02-.04.04v12.96s.02.04.04.04h8.58s.04-.02.04-.04v-1.09s-.02-.04-.04-.04h-7.27s-.04-.02-.04-.04V52.3s.02-.04.04-.04h7.27s.04-.02.04-.04v-1.09s-.02-.04-.04-.04z"/><rect class="cls-1" x="36.75" y="57.05" width="4.34" height="1.16" rx=".04" ry=".04"/><path class="cls-1" d="M83.77 41.28v-.06c-.25-.19-.48-.42-.66-.67-.29-.41-.51-.88-.64-1.41-.13-.52-.19-1.07-.19-1.63v-9.47s-.02-.04-.04-.04H81s-.04.02-.04.04v9.63c0 .56.07 1.17.22 1.8.15.63.41 1.22.8 1.76.27.38.62.72 1.03 1.01.02.01.05 0 .06-.01l.7-.96zm-69.91.2v-.06c.25-.19.48-.42.66-.67.29-.41.51-.88.64-1.41.13-.52.19-1.07.19-1.63v-9.66s.02-.04.04-.04h1.24s.04.02.04.04v9.82c0 .56-.07 1.17-.22 1.8a4.92 4.92 0 01-.8 1.76c-.27.38-.62.72-1.03 1.01-.02.01-.05 0-.06-.01l-.7-.96zm36.85.74l-.06-1.24s.02-.04.04-.04c1.39-.08 2.52-.93 2.75-2.08.28-1.4-.3-2.41-1.73-2.99-2.02-.82-2.94-2.45-2.53-4.48.35-1.74 1.99-3.03 3.99-3.14.02 0 .05.02.05.04l.06 1.24s-.02.04-.04.04c-1.39.08-2.52.93-2.75 2.08-.28 1.4.3 2.41 1.73 2.99 2.02.81 2.94 2.45 2.53 4.48-.35 1.75-1.99 3.03-3.99 3.14-.02 0-.05-.02-.05-.04z"/><rect class="cls-1" x="62.62" y="29.03" width="1.32" height="13.04" rx=".04" ry=".04"/><path class="cls-1" d="M72.77 29.03h-1.24s-.04.02-.04.04v3.99c0 .58-.19 1.61-3.23 1.61h-2.21s-.04.02-.04.04v1.08s.02.04.04.04h2.35c1.72 0 2.67-.33 3.09-.82v7.03s.02.04.04.04h1.24s.04-.02.04-.04V29.08s-.02-.04-.04-.04z"/><rect class="cls-1" x="62.62" y="51.11" width="1.32" height="13.04" rx=".04" ry=".04"/><path class="cls-1" d="M72.77 51.11h-1.24s-.04.02-.04.04v3.99c0 .58-.19 1.61-3.23 1.61h-2.21s-.04.02-.04.04v1.08s.02.04.04.04h2.35c1.72 0 2.67-.33 3.09-.82v7.03s.02.04.04.04h1.24s.04-.02.04-.04V51.16s-.02-.04-.04-.04zm11 12.26v-.06c-.25-.19-.48-.42-.66-.67-.29-.41-.51-.88-.64-1.41-.13-.52-.19-1.07-.19-1.63v-9.47s-.02-.04-.04-.04H81s-.04.02-.04.04v9.63c0 .56.07 1.17.22 1.8.15.63.41 1.22.8 1.76.27.38.62.72 1.03 1.01.02.01.05 0 .06-.01l.7-.96zm-33.06.93l-.06-1.24s.02-.04.04-.04c1.39-.08 2.52-.93 2.75-2.08.28-1.4-.3-2.41-1.73-2.99-2.02-.82-2.94-2.45-2.53-4.48.35-1.74 1.99-3.03 3.99-3.14.02 0 .05.02.05.04l.06 1.24s-.02.04-.04.04c-1.39.08-2.52.93-2.75 2.08-.28 1.4.3 2.41 1.73 2.99 2.02.81 2.94 2.45 2.53 4.48-.35 1.75-1.99 3.03-3.99 3.14-.02 0-.05-.02-.05-.04zM19.9 42.07h-1.11s-.04-.02-.04-.04v-1.06s.02-.04.04-.04h1.11c1.6 0 2.91-1.14 2.91-2.55 0-.57-.21-1.11-.61-1.56a2.35 2.35 0 010-3.12c.4-.45.61-.99.61-1.56 0-1.41-1.3-2.55-2.91-2.55h-1.11s-.04-.02-.04-.04v-1.06s.02-.04.04-.04h1.11c2.23 0 4.32 1.66 4.32 3.7 0 .84-.48 1.67-1.06 2.32-.4.45-.4 1.15 0 1.6.58.65 1.06 1.48 1.06 2.32 0 2.04-2.09 3.7-4.32 3.7zm3.81 8.44s-.04.02-.04.04c-.02 2.19-1.46 3.96-3.23 3.96-.59 0-1.13-.2-1.61-.53-.02-.01-.04 0-.04.02v1.27s.01.04.03.05c.5.23 1.05.44 1.62.44 1.54 0 2.9-.96 3.72-2.35.02-.04.07-.02.07.02v10.68c0 .02.02.04.04.04h1.24s.04-.02.04-.04V50.55s-.02-.04-.04-.04h-1.8zm-8.32-.41s-.04.02-.04.04v9.66c0 .56-.07 1.1-.19 1.63-.13.52-.34 1-.64 1.41-.18.25-.4.47-.66.67-.02.01-.02.04 0 .06l.7.96s.04.02.06.01c.41-.29.76-.63 1.03-1.01.38-.54.65-1.13.8-1.76.15-.63.22-1.24.22-1.8v-9.82s-.02-.04-.04-.04h-1.24z"/></g></svg>